<?xml version="1.0" standalone="no"?>
<!DOCTYPE svg PUBLIC "-//W3C//DTD SVG 20010904//EN"
 "http://www.w3.org/TR/2001/REC-SVG-20010904/DTD/svg10.dtd">
<svg version="1.0" xmlns="http://www.w3.org/2000/svg"
 width="398.000000pt" height="362.000000pt" viewBox="0 0 398.000000 362.000000"
 preserveAspectRatio="xMidYMid meet">

<g transform="translate(0.000000,362.000000) scale(0.100000,-0.100000)"
fill="#000000" stroke="none">
<path d="M1598 3500 c-23 -14 -61 -96 -93 -200 -15 -51 -57 -110 -77 -110 -10
0 -139 -89 -233 -159 -33 -25 -117 -100 -186 -168 -70 -67 -139 -125 -153
-129 -38 -9 -58 19 -51 69 3 20 1 37 -4 37 -18 0 -124 -129 -171 -208 -71
-117 -135 -290 -170 -462 -15 -76 -40 -339 -40 -429 0 -83 14 -207 36 -321 8
-42 14 -87 14 -100 0 -14 9 -50 21 -80 11 -30 24 -67 29 -81 4 -14 12 -34 18
-45 5 -10 27 -54 48 -97 44 -92 105 -185 182 -280 59 -73 227 -236 278 -271
112 -76 159 -104 239 -144 50 -24 102 -50 117 -58 14 -8 33 -14 42 -14 9 0 24
-4 34 -9 24 -12 120 -39 165 -46 20 -3 37 -10 37 -15 0 -6 120 -10 313 -10
258 1 315 3 331 15 11 8 31 15 44 15 24 0 111 25 144 41 10 5 25 9 34 9 9 0
28 6 42 14 15 7 69 34 121 60 149 75 257 152 385 276 100 97 206 225 253 305
38 64 133 261 133 275 0 9 7 25 15 36 8 10 15 31 15 46 0 15 4 29 9 33 6 3 13
27 16 53 4 26 10 56 15 67 33 82 43 392 17 545 -24 141 -37 203 -47 225 -4 11
-11 29 -14 40 -24 94 -118 286 -199 407 -73 109 -252 298 -354 374 -40 30 -75
54 -77 54 -3 0 -24 13 -48 29 -56 38 -138 81 -153 81 -7 0 -18 7 -25 15 -7 8
-21 15 -31 15 -39 0 -89 42 -115 96 -44 93 -81 102 -176 44 l-47 -29 -213 6
-213 6 -80 76 c-73 70 -130 111 -152 111 -4 0 -16 -5 -25 -10z m1123 -435 c24
-13 53 -29 64 -34 30 -13 151 -106 227 -173 79 -70 187 -196 252 -295 53 -81
136 -244 136 -267 0 -8 5 -18 10 -21 6 -3 10 -14 10 -23 0 -9 7 -30 15 -46 8
-15 15 -40 15 -55 1 -14 7 -37 15 -51 8 -14 15 -43 15 -65 0 -22 7 -67 15
-100 20 -81 20 -321 0 -395 -8 -30 -15 -73 -15 -95 0 -22 -7 -51 -15 -65 -8
-14 -14 -37 -15 -51 0 -15 -7 -40 -15 -55 -8 -16 -15 -37 -15 -46 0 -9 -4 -20
-10 -23 -5 -3 -10 -13 -10 -20 0 -45 -131 -277 -215 -380 -116 -142 -310 -315
-405 -358 -8 -4 -28 -16 -45 -27 -16 -11 -40 -24 -52 -30 -13 -5 -42 -19 -65
-30 -49 -24 -85 -25 -112 -5 -11 8 -30 15 -42 15 -13 0 -26 5 -29 10 -3 6 -39
10 -80 10 -41 0 -76 4 -79 9 -3 5 23 23 59 40 85 42 172 108 239 182 54 61
136 204 136 240 0 11 5 29 10 40 14 25 22 179 10 179 -5 0 -8 23 -7 51 2 40
-2 53 -16 61 -10 5 -17 19 -16 31 2 38 0 46 -22 68 -12 12 -22 26 -23 33 -7
36 -21 58 -42 66 -13 5 -24 18 -24 28 0 20 -43 66 -52 56 -4 -3 -15 7 -25 23
-24 37 -43 52 -70 53 -13 0 -24 8 -28 20 -8 26 -40 43 -66 35 -14 -5 -28 2
-48 24 -32 34 -49 39 -57 16 -9 -22 -25 -18 -49 9 -11 13 -30 27 -42 31 -19 5
-23 2 -23 -14 0 -26 -13 -26 -48 -1 -15 10 -39 22 -54 26 -27 6 -28 5 -22 -25
7 -34 1 -37 -36 -16 -32 18 -100 21 -82 3 7 -7 12 -18 12 -25 0 -18 -35 -16
-50 2 -7 8 -25 15 -40 15 -16 0 -30 6 -33 13 -4 10 -7 10 -18 0 -10 -10 -10
-13 -1 -13 19 0 -20 -49 -39 -50 -8 0 -24 7 -35 15 -24 18 -42 19 -59 1 -12
-12 -11 -15 10 -20 14 -4 25 -11 25 -16 0 -6 -9 -6 -26 0 -33 13 -77 13 -69 0
3 -5 16 -10 28 -10 12 0 29 -5 37 -10 11 -7 -5 -10 -51 -9 -36 1 -75 -1 -86
-5 -52 -16 -26 17 52 70 138 91 304 143 457 144 68 0 132 26 172 69 16 17 44
34 63 37 38 7 70 -10 160 -87 28 -24 69 -53 90 -64 21 -10 45 -24 53 -31 8 -6
31 -15 50 -18 19 -4 47 -9 61 -12 15 -3 42 2 64 13 37 17 50 36 94 131 3 8 23
20 44 27 52 18 96 79 110 153 4 19 21 45 42 64 20 17 43 45 52 62 26 50 15
149 -26 241 -5 11 -23 50 -40 88 -17 37 -31 74 -31 82 0 8 -9 29 -20 47 -30
49 -26 58 25 58 29 0 45 4 45 13 0 23 -25 82 -47 114 -13 17 -23 36 -23 42 0
6 -58 71 -130 144 -110 114 -145 157 -127 157 2 0 24 -11 48 -25z m-186 -362
c10 -24 39 -31 50 -13 14 23 35 9 35 -23 0 -33 -46 -97 -71 -97 -15 0 -75 64
-95 102 -22 43 -12 60 33 56 28 -2 41 -9 48 -25z m-1080 -1173 c9 -15 -14 -40
-31 -33 -11 4 -12 0 -3 -26 13 -36 16 -37 41 -14 10 9 18 11 18 6 0 -8 12 -8
40 -1 43 11 57 7 45 -12 -4 -7 -18 -9 -30 -6 -27 7 -44 -12 -24 -26 15 -10
-31 -5 -62 7 -17 6 -17 4 -19 -87 -1 -25 -5 -28 -35 -28 -38 0 -55 -20 -55
-64 0 -14 -5 -26 -11 -26 -6 0 -9 9 -6 20 3 11 1 20 -4 20 -5 0 -9 -4 -9 -9 0
-5 -8 -7 -18 -4 -12 3 -22 -4 -30 -22 -16 -35 -15 -37 7 -30 11 3 22 1 26 -5
3 -6 11 -8 16 -4 5 3 7 10 4 15 -4 5 0 9 8 9 10 0 13 -7 10 -20 -8 -31 15 -24
32 10 9 17 20 30 26 30 8 0 7 -5 -1 -15 -7 -8 -10 -22 -6 -30 3 -9 -1 -18 -9
-21 -8 -4 -15 -15 -15 -25 0 -10 -6 -19 -13 -19 -8 0 -22 -10 -33 -22 -17 -19
-17 -21 -1 -15 25 9 22 -10 -13 -78 -16 -32 -28 -61 -25 -63 3 -3 5 -1 5 4 0
6 14 21 31 33 18 13 28 17 24 10 -5 -8 -17 -20 -26 -26 -16 -12 -16 -53 0 -53
13 0 39 39 38 56 -1 11 6 20 18 22 16 3 18 1 8 -9 -10 -10 -10 -16 0 -27 10
-12 9 -16 -2 -20 -10 -3 -10 -6 -1 -12 9 -5 4 -19 -16 -50 -17 -26 -24 -45
-18 -47 6 -2 9 -15 6 -28 -2 -15 0 -25 7 -25 6 0 11 4 11 10 0 5 7 7 15 3 14
-5 14 -8 0 -29 -22 -34 -20 -74 5 -74 15 0 20 7 20 25 0 14 8 29 20 35 28 15
43 4 29 -22 -8 -15 -8 -19 0 -14 6 4 11 3 11 -3 0 -5 -8 -15 -17 -20 -10 -6
-12 -11 -5 -11 6 0 12 -7 12 -15 0 -17 19 -21 21 -5 3 20 4 25 13 38 16 25 30
5 30 -45 1 -61 9 -72 34 -50 26 24 32 21 32 -13 0 -17 7 -47 16 -68 l15 -37
16 29 c17 32 26 27 42 -26 16 -50 36 -66 51 -39 15 29 25 26 40 -10 21 -50 60
-79 60 -45 0 28 19 26 53 -4 38 -33 62 -38 71 -14 5 14 9 13 36 -3 25 -14 35
-15 60 -6 18 7 41 8 58 4 l27 -8 -34 -19 c-19 -10 -63 -38 -99 -62 -61 -41
-68 -43 -121 -39 -79 7 -162 24 -175 37 -5 5 -19 10 -31 10 -12 0 -30 7 -41
15 -10 8 -25 15 -33 15 -7 0 -33 14 -58 30 -24 17 -48 30 -52 30 -4 0 -42 31
-83 70 -76 70 -87 88 -165 260 -16 36 -35 88 -42 115 -16 70 -17 237 -1 310 7
33 13 66 13 73 0 6 3 12 7 12 4 0 13 18 20 41 8 23 20 43 28 46 7 3 11 12 8
19 -8 21 57 107 98 129 26 13 33 21 22 25 -12 4 -12 8 4 28 10 12 23 22 29 22
6 0 11 5 11 10 0 13 17 13 25 0z m797 -20 c209 -70 358 -275 358 -494 0 -248
-185 -475 -428 -525 -299 -62 -592 168 -619 484 -21 250 160 494 410 551 80
18 196 11 279 -16z m-62 -1140 c0 -5 -4 -10 -10 -10 -5 0 -10 5 -10 10 0 6 5
10 10 10 6 0 10 -4 10 -10z"/>
<path d="M1386 1377 c-17 -12 -17 -14 -1 -27 14 -12 18 -12 26 1 18 29 2 46
-25 26z"/>
<path d="M1225 1160 c-3 -5 -1 -10 4 -10 6 0 11 5 11 10 0 6 -2 10 -4 10 -3 0
-8 -4 -11 -10z"/>
<path d="M1310 1139 c0 -5 5 -7 10 -4 6 3 10 8 10 11 0 2 -4 4 -10 4 -5 0 -10
-5 -10 -11z"/>
<path d="M1276 1065 c-3 -8 -1 -15 4 -15 6 0 10 7 10 15 0 8 -2 15 -4 15 -2 0
-6 -7 -10 -15z"/>
<path d="M1290 890 c0 -5 5 -10 10 -10 6 0 10 5 10 10 0 6 -4 10 -10 10 -5 0
-10 -4 -10 -10z"/>
<path d="M1324 726 c-8 -22 3 -33 18 -18 9 9 9 15 0 24 -9 9 -13 7 -18 -6z"/>
<path d="M2218 1313 c-37 -6 -98 -64 -98 -93 0 -26 5 -23 85 49 53 50 46 37
-28 -48 -47 -53 -61 -89 -31 -77 9 4 13 2 8 -5 -4 -7 -6 -46 -5 -88 1 -47 -4
-92 -13 -119 -9 -24 -11 -40 -6 -37 17 11 11 -9 -16 -50 -19 -31 -10 -24 40
30 37 38 66 74 66 81 0 7 7 15 16 18 29 11 10 15 -29 7 -20 -5 -37 -6 -37 -3
0 4 21 28 47 54 34 35 41 46 25 41 -21 -5 -22 -2 -22 71 l0 76 85 0 c61 0 85
-4 85 -12 0 -7 13 1 29 17 30 31 42 50 29 50 -4 0 -13 9 -21 19 -12 16 -28 20
-98 21 -46 1 -96 0 -111 -2z"/>
<path d="M1653 1253 c-34 -35 -41 -52 -23 -54 6 -1 15 -3 20 -4 6 -1 37 -3 70
-4 l60 -1 0 -64 0 -64 -85 -77 c-47 -42 -85 -81 -85 -87 0 -6 16 -7 43 -3 l42
7 -29 -31 c-17 -17 -25 -31 -20 -31 5 0 30 21 54 46 43 44 44 46 18 40 -92
-21 -85 -21 -63 1 11 11 97 90 190 175 94 85 176 162 184 172 13 16 3 17 -165
15 l-179 -2 -32 -34z m267 -67 c0 -2 -7 -9 -15 -16 -12 -10 -15 -10 -15 4 0 9
7 16 15 16 8 0 15 -2 15 -4z"/>
<path d="M2006 1141 l-69 -70 43 10 c24 5 49 9 55 7 7 -2 -43 -52 -112 -113
-111 -99 -205 -190 -160 -156 16 12 17 9 17 -38 l0 -51 55 0 55 0 0 100 0 100
109 92 c60 51 108 95 106 96 -2 2 -27 -1 -56 -7 -28 -6 -53 -10 -55 -8 -2 2
17 26 42 55 25 29 44 52 42 52 -2 0 -34 -31 -72 -69z"/>
<path d="M2487 1182 c-35 -37 -34 -41 9 -32 45 10 45 10 30 38 l-12 22 -27
-28z"/>
<path d="M2438 1035 c-54 -51 -98 -96 -98 -99 0 -3 21 -37 46 -77 l46 -71 64
63 c35 35 61 65 59 68 -3 2 -15 -5 -28 -17 -24 -23 -43 -30 -32 -12 3 5 -12
29 -34 52 l-39 43 41 20 c22 11 49 31 58 45 21 29 35 80 23 80 -5 -1 -53 -43
-106 -95z"/>
<path d="M2437 765 c-80 -87 -94 -115 -24 -47 25 24 41 33 44 25 9 -25 39 -12
61 27 21 37 23 80 4 80 -4 0 -42 -38 -85 -85z"/>
<path d="M2170 785 l-54 -55 51 0 51 0 4 53 c2 28 4 53 3 54 -1 1 -26 -22 -55
-52z"/>
<path d="M1714 788 l-19 -23 23 19 c21 18 27 26 19 26 -2 0 -12 -10 -23 -22z"/>
</g>
</svg>
